PathFileType	4	(X/Y/Z)	RBDS019\RBDS019runT45.trc
DataRate	CameraRate	NumFrames	NumMarkers	Units	OrigDataRate	OrigDataStartFrame	OrigNumFrames
150.000000	150.000000	4	33	mm	150.000000	0	4500
Frame#	Time	L.ASIS			L.Heel.Bottom			L.Heel.Lateral			L.Heel.Top			L.Iliac.Crest			L.MT1			L.MT5			L.PSIS			L.Shank.Bottom.Lateral			L.Shank.Bottom.Medial			L.Shank.Top.Lateral			L.Shank.Top.Medial			L.Thigh.Bottom.Lateral			L.Thigh.Bottom.Medial			L.Thigh.Top.Lateral			L.Thigh.Top.Medial			R.ASIS			R.ASY			R.Heel.Bottom			R.Heel.Lateral			R.Heel.Top			R.Iliac.Crest			R.MT1			R.MT5			R.PSIS			R.Shank.Bottom.Lateral			R.Shank.Bottom.Medial			R.Shank.Top.Lateral			R.Shank.Top.Medial			R.Thigh.Bottom.Lateral			R.Thigh.Bottom.Medial			R.Thigh.Top.Lateral			R.Thigh.Top.Medial			
		X1	Y1	Z1	X2	Y2	Z2	X3	Y3	Z3	X4	Y4	Z4	X5	Y5	Z5	X6	Y6	Z6	X7	Y7	Z7	X8	Y8	Z8	X9	Y9	Z9	X10	Y10	Z10	X11	Y11	Z11	X12	Y12	Z12	X13	Y13	Z13	X14	Y14	Z14	X15	Y15	Z15	X16	Y16	Z16	X17	Y17	Z17	X18	Y18	Z18	X19	Y19	Z19	X20	Y20	Z20	X21	Y21	Z21	X22	Y22	Z22	X23	Y23	Z23	X24	Y24	Z24	X25	Y25	Z25	X26	Y26	Z26	X27	Y27	Z27	X28	Y28	Z28	X29	Y29	Z29	X30	Y30	Z30	X31	Y31	Z31	X32	Y32	Z32	X33	Y33	Z33	

1	0	2350.598552428848	975.3625626299556	982.6173800810251	2532.536902987989	56.96866523022646	1040.748585882966	2556.283286908639	85.57348518475469	998.8885983779408	2521.544732015519	103.8001781157771	1038.99854011639	2293.371599667242	1032.483087755072	929.2573890362351	2710.943902829646	151.4989995886935	1091.031291769523	2695.139235915857	130.503515546231	985.3800637920006	2198.258126907758	1010.210176252701	1032.780435494441	2558.998991223783	221.5234594412094	982.8220800350666	2515.197167159532	210.4762895188927	1007.583398002677	2531.146663374669	293.8447343714218	959.8727888146326	2485.818407631982	287.3816000722998	987.7275980901527	2446.01777748806	632.5383253824256	934.2483827512141	2385.407147191492	597.9610092055575	955.7148174236729	2387.930371761319	722.7602935853978	913.7270095991793	2329.056199767362	689.8167326739759	932.6962559098941	2361.825365790646	949.2533507880984	1195.465551085421	nan	nan	nan	1669.140716413322	520.7398905658838	1081.745534690972	1673.116052530406	490.6878545747955	1122.872836889288	1711.851747280034	509.720071885939	1091.880783715531	2325.504048482926	1027.529632643681	1209.617648332752	1692.439657921936	325.1747407912954	1037.926028583631	1650.939213469073	345.7973601928712	1135.397684846553	2207.685521468723	1014.80725245995	1134.47300744969	1786.417900768223	461.6530373524117	1151.905227679402	1782.541439561409	502.9414007530169	1114.904069498209	1858.768128096333	491.6042751241043	1174.590990643725	1854.740203390187	529.8325690498193	1137.010422126494	2150.297505423085	605.0257904560497	1215.583597375224	2102.511428399585	630.8081809324935	1169.580221726481	2183.786123127123	707.1765156768994	1238.447642801519	2134.594570777618	731.5120596519184	1197.662622165161	
2	0.006666666666666667	2349.696024744012	973.4651698386763	981.650169835086	2529.909382903217	49.16338635469985	1040.132796994982	2553.398608510826	77.54808074119201	997.9483025972471	2518.431264562589	95.97718825713831	1037.822895914476	2292.15452574411	1030.874298705982	928.9083426032861	2707.664938550436	146.0270837526175	1089.252177255715	2692.063527108639	123.3599880726928	984.0320096664459	2197.844792791297	1006.690535571057	1033.065611567766	2552.385377897368	213.998799323006	981.5192988408826	2510.040921636305	202.8317659418676	1008.190594238117	2523.343528027988	286.2692834363231	959.4934016411247	2479.645433769121	279.8400919971038	989.4340916637834	2439.141325694991	625.0578959333548	933.6377012795107	2378.019321090689	592.4148935605833	956.3923088061412	2383.120845299599	716.6435831397902	913.1628648661087	2323.944696875417	685.437114572791	933.5553842734935	2362.797063998398	947.9863232226658	1194.510326803506	nan	nan	nan	1683.15233976128	540.9921696694473	1077.51967762126	1685.605484568907	512.3096436813929	1119.685299545067	1725.035376367276	527.9564108228514	1087.748742788192	2325.632237896114	1025.172890539118	1209.482514129233	1694.359527864643	344.1718988656736	1040.176128067533	1655.544541796611	370.2247396047871	1136.514388046543	2207.892430867723	1011.624278772911	1134.921557832527	1795.952791104164	476.6262330164195	1150.258561738028	1794.537408677188	517.1532916102175	1112.607265700654	1869.832841566058	502.2048748676302	1172.515241651972	1868.097697633822	539.6442306888489	1134.250766807156	2156.485867830753	600.1496943213355	1215.758071355169	2109.105205929903	624.9149776423501	1168.783305364769	2188.369374454636	703.0455141715942	1238.260171251033	2139.211501082746	726.5268442686103	1196.822959170528	
3	0.01333333333333333	2348.783104572641	971.3684310925069	980.6455021676818	2526.041449670999	41.70368265063907	1039.602257028595	2549.335370993538	69.79619845813397	997.0946982121764	2514.316513085945	88.50809887081601	1036.815131504751	2290.929299239898	1029.051972555027	928.5477595742211	2703.522327967469	139.9824444959602	1087.432177131703	2687.886451995596	115.9134878906319	982.6334612720744	2197.378950852918	1002.974107698189	1033.309445186165	2545.230841473396	206.4371792306015	980.3372138798279	2504.250188963636	195.262026266536	1008.819109960276	2515.227765361004	278.7125865120448	959.1645634536791	2473.063740291679	272.4185788239045	991.076273958495	2432.388229210089	617.6901270280684	933.0229635851728	2370.78629883409	586.9026244828738	957.0273798618312	2378.340056632552	710.5661327857293	912.5847371367576	2318.887452438848	681.0380177171634	934.3744171403804	2363.742452124317	946.5804220011433	1193.549561055581	nan	nan	nan	1697.580268919432	560.7394236925915	1073.444586377069	1698.58938663009	533.4069809715791	1116.612969519218	1738.629659938695	545.7178385672456	1083.76500941832	2325.800875041241	1022.697201835752	1209.334770780913	1696.910780924728	362.8440408035416	1042.458243736713	1660.862811365726	394.1665386480676	1137.71591353099	2208.061908528859	1008.278801615777	1135.344905373738	1805.942406762762	491.1884300747971	1148.704444476709	1806.956471477349	530.9479026380337	1110.423993576918	1881.258224017933	512.398075589998	1170.555524960399	1881.789081974884	549.0558363965218	1131.64217898371	2162.776863570458	595.0752092725781	1215.955936321018	2115.774125841937	618.7596318467661	1168.026506999178	2192.985371667906	698.7098788163714	1238.070551912084	2143.87137762593	721.3065839973835	1195.974626637217	
4	0.02	2347.837017104027	968.8885935014692	979.5579196240674	2519.841087245304	34.9093203395545	1039.225165677196	2543.05685277152	62.57401751873687	996.3990526596334	2508.315169105591	81.71778133105306	1036.113042286007	2289.683222721349	1026.778156924786	928.1728708445091	2697.737479034048	132.8970333432358	1085.546279199669	2681.63416171974	107.9298592040657	981.1425384706364	2196.801347048505	998.8765968072121	1033.506169579098	2537.072699134639	198.8320537948505	979.3691612660632	2497.280056592621	187.8626583697242	1009.474290773439	2506.549293942351	271.2176013377186	958.9175360881169	2465.738983649513	265.2530990962295	992.5832071210513	2425.899437731247	610.5333996125059	932.3875565630143	2363.891133149661	581.4503941772018	957.5902785624138	2373.627013546562	704.5535761449638	911.9687086190147	2313.956780411531	676.589382149665	935.1208359710829	2364.629594134641	944.8690996382072	1192.570352016849	nan	nan	nan	1712.854201200428	579.5606565057249	1069.687760784823	1712.55775375277	553.5284399834514	1113.787305632336	1753.055185114466	562.5999873187983	1080.088384474706	2326.060805712146	1019.959040298746	1209.167909208812	1700.677005054118	380.9389320334418	1044.794345622414	1667.545446348135	417.2079313032831	1139.080721443532	2208.151698072044	1004.600397863641	1135.744501128563	1816.835814811644	504.9781716464091	1147.337775936136	1820.229451787686	543.9482684688915	1108.461140124017	1893.408740893646	521.8070766900663	1168.820864464823	1896.159690652878	557.6883251235899	1129.320751747292	2169.262486684773	589.5695292265021	1216.201460465666	2122.587210736231	612.0745726363211	1167.353318954458	2197.650676750309	693.9409341183858	1237.884484363763	2148.593970226182	715.5896406414666	1195.119226168512	
